<svg id="Capa_1" enable-background="new 0 0 512 512" height="512" viewBox="0 0 512 512" width="512" xmlns="http://www.w3.org/2000/svg"><g><g><path d="m413 504.5h-314c-8.284 0-15-6.716-15-15v-467c0-8.284 6.716-15 15-15h314c8.284 0 15 6.716 15 15v467c0 8.284-6.716 15-15 15z" fill="#ffc269"/><path d="m428 22.5v467c0 8.28-6.72 15-15 15h-30c8.28 0 15-6.72 15-15v-467c0-8.28-6.72-15-15-15h30c8.28 0 15 6.72 15 15z" fill="#ffa95f"/><path d="m393 278.5h-274c-2.761 0-5-2.239-5-5v-231c0-2.761 2.239-5 5-5h274c2.761 0 5 2.239 5 5v231c0 2.761-2.239 5-5 5z" fill="#fff"/><path d="m393 308.5h-274c-2.761 0-5 2.239-5 5v126c0 2.761 2.239 5 5 5h274c2.761 0 5-2.239 5-5v-126c0-2.761-2.239-5-5-5z" fill="#fff"/><path d="m428 474.5h-344v15c0 8.284 6.716 15 15 15h314c8.284 0 15-6.716 15-15z" fill="#d19a6e"/><path d="m428 474.5v15c0 8.28-6.72 15-15 15h-30c8.28 0 15-6.72 15-15v-15z" fill="#bc845e"/><g fill="#ffc269"><path d="m191 173h-20c-2.761 0-5-2.239-5-5v-20c0-2.761 2.239-5 5-5h20c2.761 0 5 2.239 5 5v20c0 2.761-2.239 5-5 5z"/><path d="m266 98h-20c-2.761 0-5-2.239-5-5v-20c0-2.761 2.239-5 5-5h20c2.761 0 5 2.239 5 5v20c0 2.761-2.239 5-5 5z"/><path d="m266 248h-20c-2.761 0-5-2.239-5-5v-20c0-2.761 2.239-5 5-5h20c2.761 0 5 2.239 5 5v20c0 2.761-2.239 5-5 5z"/><path d="m341 173h-20c-2.761 0-5-2.239-5-5v-20c0-2.761 2.239-5 5-5h20c2.761 0 5 2.239 5 5v20c0 2.761-2.239 5-5 5z"/></g></g><g><path d="m413 0h-314c-12.407 0-22.5 10.094-22.5 22.5v467c0 12.406 10.093 22.5 22.5 22.5h264c4.142 0 7.5-3.357 7.5-7.5s-3.358-7.5-7.5-7.5h-264c-4.136 0-7.5-3.364-7.5-7.5v-7.5h329v7.5c0 4.136-3.364 7.5-7.5 7.5h-15c-4.142 0-7.5 3.357-7.5 7.5s3.358 7.5 7.5 7.5h15c12.407 0 22.5-10.094 22.5-22.5v-467c0-12.406-10.093-22.5-22.5-22.5zm-321.5 467v-444.5c0-4.136 3.364-7.5 7.5-7.5h314c4.136 0 7.5 3.364 7.5 7.5v444.5z"/><path d="m393 30h-274c-6.893 0-12.5 5.607-12.5 12.5v20.392c0 4.143 3.358 7.5 7.5 7.5s7.5-3.357 7.5-7.5v-17.892h269v226h-269v-173.108c0-4.143-3.358-7.5-7.5-7.5s-7.5 3.357-7.5 7.5v175.608c0 6.893 5.607 12.5 12.5 12.5h274c6.893 0 12.5-5.607 12.5-12.5v-231c0-6.893-5.607-12.5-12.5-12.5z"/><path d="m393 301h-274c-6.893 0-12.5 5.607-12.5 12.5v126c0 6.893 5.607 12.5 12.5 12.5h274c6.893 0 12.5-5.607 12.5-12.5v-126c0-6.893-5.607-12.5-12.5-12.5zm-2.5 136h-269v-121h269z"/><path d="m171 135.5c-6.893 0-12.5 5.607-12.5 12.5v20c0 6.893 5.607 12.5 12.5 12.5h2.5v47.03c-4.476 2.598-7.5 7.433-7.5 12.97 0 8.271 6.729 15 15 15s15-6.729 15-15c0-5.538-3.024-10.372-7.5-12.97v-22.004c10.728 15.261 26.492 26.657 45 31.87v5.604c0 6.893 5.607 12.5 12.5 12.5h20c6.893 0 12.5-5.607 12.5-12.5v-5.604c18.508-5.213 34.272-16.609 45-31.87v22.004c-4.476 2.598-7.5 7.433-7.5 12.97 0 8.271 6.729 15 15 15s15-6.729 15-15c0-5.538-3.024-10.372-7.5-12.97v-47.03h2.5c6.893 0 12.5-5.607 12.5-12.5v-20c0-6.893-5.607-12.5-12.5-12.5h-2.5v-47.03c4.476-2.598 7.5-7.433 7.5-12.97 0-8.271-6.729-15-15-15s-15 6.729-15 15c0 5.538 3.024 10.372 7.5 12.97v22.004c-10.728-15.261-26.492-26.657-45-31.87v-5.604c0-6.893-5.607-12.5-12.5-12.5h-20c-6.893 0-12.5 5.607-12.5 12.5v5.606c-18.506 5.214-34.271 16.614-45 31.875v-22.011c4.476-2.598 7.5-7.433 7.5-12.97 0-8.271-6.729-15-15-15s-15 6.729-15 15c0 5.538 3.024 10.372 7.5 12.97v47.03zm2.5 15h15v15h-15zm75 90v-15h15v15zm90-75h-15v-15h15zm-90-90h15v15h-15zm-14.929 18.815c.659 6.276 5.981 11.185 12.429 11.185h20c6.449 0 11.771-4.909 12.43-11.186 19.322 6.765 34.493 21.936 41.256 41.257-6.277.659-11.186 5.981-11.186 12.43v20c0 6.449 4.909 11.771 11.186 12.43-6.763 19.321-21.934 34.492-41.256 41.257-.659-6.277-5.981-11.186-12.43-11.186h-20c-6.449 0-11.771 4.909-12.43 11.186-19.322-6.765-34.493-21.936-41.256-41.257 6.277-.659 11.186-5.981 11.186-12.43v-20c0-6.448-4.909-11.77-11.185-12.429 6.763-19.317 21.937-34.491 41.256-41.257z"/><path d="m208.388 422.009c3.77 1.466 8.207-.43 9.678-4.34l5.267-13.83h35.499l5.211 13.81c1.462 3.874 5.788 5.831 9.665 4.368 3.875-1.462 5.832-5.789 4.369-9.665l-28.277-74.933c-.026-.069-.053-.138-.082-.206-1.429-3.472-4.775-5.713-8.529-5.713-.003 0-.007 0-.011 0-3.757.004-7.104 2.254-8.525 5.731-.023.057-.045.112-.067.169l-28.538 74.931c-1.474 3.87.469 8.203 4.34 9.678zm32.777-64.988 12.007 31.817h-24.125z"/><path d="m300.942 422.5c4.142 0 7.5-3.357 7.5-7.5v-76c0-4.143-3.358-7.5-7.5-7.5s-7.5 3.357-7.5 7.5v76c0 4.143 3.358 7.5 7.5 7.5z"/></g></g></svg>